<svg width="537" height="362" viewBox="0 0 537 362" fill="none" xmlns="http://www.w3.org/2000/svg">
<g clip-path="url(#clip0)">
<rect width="537" height="362" fill="white"/>
<rect width="604" height="407" fill="#65B5FF" fill-opacity="0.66"/>
<path d="M114.79 177.06C120.683 177.06 125.358 178.845 128.815 182.415C132.328 185.985 134.085 190.943 134.085 197.29V225H119.635V199.245C119.635 196.185 118.813 193.833 117.17 192.19C115.583 190.49 113.373 189.64 110.54 189.64C107.707 189.64 105.468 190.49 103.825 192.19C102.238 193.833 101.445 196.185 101.445 199.245V225H86.995V199.245C86.995 196.185 86.1733 193.833 84.53 192.19C82.9433 190.49 80.7333 189.64 77.9 189.64C75.0667 189.64 72.8283 190.49 71.185 192.19C69.5983 193.833 68.805 196.185 68.805 199.245V225H54.27V177.57H68.805V183.52C70.2783 181.537 72.205 179.978 74.585 178.845C76.965 177.655 79.6567 177.06 82.66 177.06C86.23 177.06 89.4033 177.825 92.18 179.355C95.0133 180.885 97.2233 183.067 98.81 185.9C100.453 183.293 102.692 181.168 105.525 179.525C108.358 177.882 111.447 177.06 114.79 177.06ZM165.84 225.68C161.194 225.68 157 224.688 153.26 222.705C149.577 220.722 146.659 217.888 144.505 214.205C142.409 210.522 141.36 206.215 141.36 201.285C141.36 196.412 142.437 192.133 144.59 188.45C146.744 184.71 149.69 181.848 153.43 179.865C157.17 177.882 161.364 176.89 166.01 176.89C170.657 176.89 174.85 177.882 178.59 179.865C182.33 181.848 185.277 184.71 187.43 188.45C189.584 192.133 190.66 196.412 190.66 201.285C190.66 206.158 189.555 210.465 187.345 214.205C185.192 217.888 182.217 220.722 178.42 222.705C174.68 224.688 170.487 225.68 165.84 225.68ZM165.84 213.1C168.617 213.1 170.969 212.08 172.895 210.04C174.879 208 175.87 205.082 175.87 201.285C175.87 197.488 174.907 194.57 172.98 192.53C171.11 190.49 168.787 189.47 166.01 189.47C163.177 189.47 160.825 190.49 158.955 192.53C157.085 194.513 156.15 197.432 156.15 201.285C156.15 205.082 157.057 208 158.87 210.04C160.74 212.08 163.064 213.1 165.84 213.1ZM212.907 185.475C214.607 182.868 216.732 180.828 219.282 179.355C221.832 177.825 224.665 177.06 227.782 177.06V192.445H223.787C220.16 192.445 217.44 193.238 215.627 194.825C213.813 196.355 212.907 199.075 212.907 202.985V225H198.372V177.57H212.907V185.475ZM249.264 185.475C250.964 182.868 253.089 180.828 255.639 179.355C258.189 177.825 261.022 177.06 264.139 177.06V192.445H260.144C256.517 192.445 253.797 193.238 251.984 194.825C250.171 196.355 249.264 199.075 249.264 202.985V225H234.729V177.57H249.264V185.475ZM292.676 225.68C288.03 225.68 283.836 224.688 280.096 222.705C276.413 220.722 273.495 217.888 271.341 214.205C269.245 210.522 268.196 206.215 268.196 201.285C268.196 196.412 269.273 192.133 271.426 188.45C273.58 184.71 276.526 181.848 280.266 179.865C284.006 177.882 288.2 176.89 292.846 176.89C297.493 176.89 301.686 177.882 305.426 179.865C309.166 181.848 312.113 184.71 314.266 188.45C316.42 192.133 317.496 196.412 317.496 201.285C317.496 206.158 316.391 210.465 314.181 214.205C312.028 217.888 309.053 220.722 305.256 222.705C301.516 224.688 297.323 225.68 292.676 225.68ZM292.676 213.1C295.453 213.1 297.805 212.08 299.731 210.04C301.715 208 302.706 205.082 302.706 201.285C302.706 197.488 301.743 194.57 299.816 192.53C297.946 190.49 295.623 189.47 292.846 189.47C290.013 189.47 287.661 190.49 285.791 192.53C283.921 194.513 282.986 197.432 282.986 201.285C282.986 205.082 283.893 208 285.706 210.04C287.576 212.08 289.9 213.1 292.676 213.1ZM393.293 177.57L380.458 225H364.393L356.913 194.23L349.178 225H333.198L320.278 177.57H334.813L341.528 211.485L349.518 177.57H364.903L372.978 211.315L379.608 177.57H393.293Z" fill="black"/>
<rect x="402.5" y="119.5" width="23.8442" height="61.1105" rx="11.9221" fill="#65B5FF" stroke="black"/>
<rect x="462.126" y="119.5" width="23.8442" height="61.1105" rx="11.9221" fill="#65B5FF" stroke="black"/>
<rect x="432.313" y="129.438" width="23.8442" height="28.8131" rx="11.9221" fill="#1156BE" stroke="black"/>
</g>
<defs>
<clipPath id="clip0">
<rect width="537" height="362" fill="white"/>
</clipPath>
</defs>
</svg>
