<svg width="510" height="319" viewBox="0 0 510 319" fill="none" xmlns="http://www.w3.org/2000/svg">
<rect width="510" height="319" fill="white"/>
<rect width="510" height="319" fill="#FF8A05" fill-opacity="0.94"/>
<path d="M166.64 160.578C166.64 167.716 165.367 173.707 162.822 178.549C160.304 183.363 156.596 186.891 151.699 189.132L166.308 205.443H149.831L138.708 191.83H137.753C128.457 191.83 121.318 189.132 116.337 183.737C111.357 178.341 108.867 170.594 108.867 160.495C108.867 150.395 111.357 142.689 116.337 137.377C121.346 132.037 128.512 129.367 137.836 129.367C147.161 129.367 154.286 132.051 159.211 137.418C164.164 142.786 166.64 150.506 166.64 160.578ZM122.355 160.578C122.355 167.357 123.642 172.462 126.215 175.893C128.789 179.324 132.635 181.039 137.753 181.039C148.019 181.039 153.151 174.219 153.151 160.578C153.151 146.909 148.046 140.075 137.836 140.075C132.718 140.075 128.858 141.804 126.257 145.263C123.656 148.694 122.355 153.799 122.355 160.578ZM228.605 130.321V169.584C228.605 174.066 227.596 177.995 225.576 181.371C223.583 184.747 220.692 187.334 216.901 189.132C213.111 190.931 208.628 191.83 203.454 191.83C195.651 191.83 189.592 189.838 185.275 185.854C180.959 181.841 178.801 176.363 178.801 169.418V130.321H191.625V167.467C191.625 172.143 192.566 175.574 194.448 177.76C196.329 179.946 199.442 181.039 203.786 181.039C207.992 181.039 211.035 179.946 212.917 177.76C214.826 175.547 215.781 172.088 215.781 167.384V130.321H228.605ZM280.61 191L276.21 176.557H254.089L249.689 191H235.827L257.243 130.072H272.973L294.472 191H280.61ZM273.139 165.766C269.072 152.678 266.775 145.277 266.25 143.561C265.751 141.846 265.392 140.49 265.17 139.494C264.257 143.035 261.643 151.793 257.326 165.766H273.139ZM315.017 157.257H319.167C323.234 157.257 326.236 156.579 328.173 155.224C330.11 153.868 331.079 151.737 331.079 148.832C331.079 145.954 330.083 143.907 328.09 142.689C326.126 141.472 323.068 140.863 318.918 140.863H315.017V157.257ZM315.017 167.716V191H302.15V130.321H319.831C328.076 130.321 334.178 131.829 338.134 134.845C342.091 137.833 344.069 142.385 344.069 148.5C344.069 152.069 343.087 155.251 341.123 158.046C339.158 160.813 336.377 162.985 332.78 164.562C341.911 178.203 347.86 187.016 350.627 191H336.35L321.865 167.716H315.017ZM407.072 191H392.463L376.567 165.434L371.13 169.335V191H358.264V130.321H371.13V158.087L376.193 150.949L392.629 130.321H406.906L385.739 157.174L407.072 191Z" fill="white"/>
<rect x="79.5" y="103.5" width="351" height="113" stroke="white" stroke-width="5"/>
</svg>
