<svg width="575" height="388" viewBox="0 0 575 388" fill="none" xmlns="http://www.w3.org/2000/svg">
<g clip-path="url(#clip0)">
<rect width="575" height="388" fill="white"/>
<rect width="576" height="388" fill="#D23763" fill-opacity="0.23"/>
<path d="M125.642 155.33L104.477 215H86.2874L65.1224 155.33H80.5924L95.3824 200.38L110.257 155.33H125.642ZM176.427 190.52C176.427 191.88 176.342 193.297 176.172 194.77H143.277C143.504 197.717 144.439 199.983 146.082 201.57C147.782 203.1 149.851 203.865 152.287 203.865C155.914 203.865 158.436 202.335 159.852 199.275H175.322C174.529 202.392 173.084 205.197 170.987 207.69C168.947 210.183 166.369 212.138 163.252 213.555C160.136 214.972 156.651 215.68 152.797 215.68C148.151 215.68 144.014 214.688 140.387 212.705C136.761 210.722 133.927 207.888 131.887 204.205C129.847 200.522 128.827 196.215 128.827 191.285C128.827 186.355 129.819 182.048 131.802 178.365C133.842 174.682 136.676 171.848 140.302 169.865C143.929 167.882 148.094 166.89 152.797 166.89C157.387 166.89 161.467 167.853 165.037 169.78C168.607 171.707 171.384 174.455 173.367 178.025C175.407 181.595 176.427 185.76 176.427 190.52ZM161.552 186.695C161.552 184.202 160.702 182.218 159.002 180.745C157.302 179.272 155.177 178.535 152.627 178.535C150.191 178.535 148.122 179.243 146.422 180.66C144.779 182.077 143.759 184.088 143.362 186.695H161.552ZM212.995 167.06C218.549 167.06 222.969 168.873 226.255 172.5C229.599 176.07 231.27 181 231.27 187.29V215H216.82V189.245C216.82 186.072 215.999 183.607 214.355 181.85C212.712 180.093 210.502 179.215 207.725 179.215C204.949 179.215 202.739 180.093 201.095 181.85C199.452 183.607 198.63 186.072 198.63 189.245V215H184.095V167.57H198.63V173.86C200.104 171.763 202.087 170.12 204.58 168.93C207.074 167.683 209.879 167.06 212.995 167.06ZM267.806 202.675V215H260.411C255.141 215 251.032 213.725 248.086 211.175C245.139 208.568 243.666 204.347 243.666 198.51V179.64H237.886V167.57H243.666V156.01H258.201V167.57H267.721V179.64H258.201V198.68C258.201 200.097 258.541 201.117 259.221 201.74C259.901 202.363 261.034 202.675 262.621 202.675H267.806ZM322.737 167.57V215H308.202V208.54C306.729 210.637 304.717 212.337 302.167 213.64C299.674 214.887 296.897 215.51 293.837 215.51C290.21 215.51 287.009 214.717 284.232 213.13C281.455 211.487 279.302 209.135 277.772 206.075C276.242 203.015 275.477 199.417 275.477 195.28V167.57H289.927V193.325C289.927 196.498 290.749 198.963 292.392 200.72C294.035 202.477 296.245 203.355 299.022 203.355C301.855 203.355 304.094 202.477 305.737 200.72C307.38 198.963 308.202 196.498 308.202 193.325V167.57H322.737ZM347.712 175.475C349.412 172.868 351.537 170.828 354.087 169.355C356.637 167.825 359.471 167.06 362.587 167.06V182.445H358.592C354.966 182.445 352.246 183.238 350.432 184.825C348.619 186.355 347.712 189.075 347.712 192.985V215H333.177V167.57H347.712V175.475ZM414.245 190.52C414.245 191.88 414.16 193.297 413.99 194.77H381.095C381.321 197.717 382.256 199.983 383.9 201.57C385.6 203.1 387.668 203.865 390.105 203.865C393.731 203.865 396.253 202.335 397.67 199.275H413.14C412.346 202.392 410.901 205.197 408.805 207.69C406.765 210.183 404.186 212.138 401.07 213.555C397.953 214.972 394.468 215.68 390.615 215.68C385.968 215.68 381.831 214.688 378.205 212.705C374.578 210.722 371.745 207.888 369.705 204.205C367.665 200.522 366.645 196.215 366.645 191.285C366.645 186.355 367.636 182.048 369.62 178.365C371.66 174.682 374.493 171.848 378.12 169.865C381.746 167.882 385.911 166.89 390.615 166.89C395.205 166.89 399.285 167.853 402.855 169.78C406.425 171.707 409.201 174.455 411.185 178.025C413.225 181.595 414.245 185.76 414.245 190.52ZM399.37 186.695C399.37 184.202 398.52 182.218 396.82 180.745C395.12 179.272 392.995 178.535 390.445 178.535C388.008 178.535 385.94 179.243 384.24 180.66C382.596 182.077 381.576 184.088 381.18 186.695H399.37Z" fill="black"/>
<path d="M473 239L417.574 155H528.426L473 239Z" fill="#D23763"/>
<path d="M473.5 215L441.89 167H505.11L473.5 215Z" fill="#0E2F4F"/>
</g>
<defs>
<clipPath id="clip0">
<rect width="575" height="388" fill="white"/>
</clipPath>
</defs>
</svg>
