<svg width="539" height="363" viewBox="0 0 539 363" fill="none" xmlns="http://www.w3.org/2000/svg">
<g clip-path="url(#clip0)">
<rect width="539" height="363" fill="white"/>
<path d="M62.4201 164.29L42.5301 209H36.3251L16.5201 164.29H22.8101L39.5551 202.37L56.4701 164.29H62.4201ZM70.9194 164.29H76.9544V209H70.9194V164.29ZM73.9794 154.515C72.7327 154.515 71.6844 154.09 70.8344 153.24C69.9844 152.39 69.5594 151.37 69.5594 150.18C69.5594 149.047 69.9844 148.055 70.8344 147.205C71.6844 146.355 72.7327 145.93 73.9794 145.93C75.2261 145.93 76.2744 146.355 77.1244 147.205C77.9744 147.998 78.3994 148.962 78.3994 150.095C78.3994 151.342 77.9744 152.39 77.1244 153.24C76.2744 154.09 75.2261 154.515 73.9794 154.515ZM132.677 188.515H95.2765C95.6165 193.162 97.4015 196.93 100.632 199.82C103.862 202.653 107.942 204.07 112.872 204.07C115.648 204.07 118.198 203.588 120.522 202.625C122.845 201.605 124.857 200.132 126.557 198.205L129.957 202.115C127.973 204.495 125.48 206.308 122.477 207.555C119.53 208.802 116.272 209.425 112.702 209.425C108.112 209.425 104.032 208.462 100.462 206.535C96.9482 204.552 94.1999 201.832 92.2165 198.375C90.2332 194.918 89.2415 191.008 89.2415 186.645C89.2415 182.282 90.1765 178.372 92.0465 174.915C93.9732 171.458 96.5799 168.767 99.8665 166.84C103.21 164.913 106.95 163.95 111.087 163.95C115.223 163.95 118.935 164.913 122.222 166.84C125.508 168.767 128.087 171.458 129.957 174.915C131.827 178.315 132.762 182.225 132.762 186.645L132.677 188.515ZM111.087 169.135C106.78 169.135 103.153 170.523 100.207 173.3C97.3165 176.02 95.6732 179.59 95.2765 184.01H126.982C126.585 179.59 124.913 176.02 121.967 173.3C119.077 170.523 115.45 169.135 111.087 169.135ZM209.835 164.29L192.92 209H187.225L173.115 172.365L159.005 209H153.31L136.48 164.29H142.26L156.285 202.285L170.65 164.29H175.835L190.115 202.285L204.31 164.29H209.835ZM230.567 158.85H210.847V149.5H261.337V158.85H241.617V209H230.567V158.85ZM311.476 163.61V209H301.361V203.22C299.661 205.26 297.536 206.847 294.986 207.98C292.436 209.057 289.688 209.595 286.741 209.595C280.678 209.595 275.889 207.923 272.376 204.58C268.919 201.18 267.191 196.165 267.191 189.535V163.61H277.816V188.09C277.816 192.17 278.723 195.23 280.536 197.27C282.406 199.253 285.041 200.245 288.441 200.245C292.238 200.245 295.241 199.083 297.451 196.76C299.718 194.38 300.851 190.98 300.851 186.56V163.61H311.476ZM350.547 163.1C354.967 163.1 358.906 164.063 362.362 165.99C365.876 167.917 368.624 170.637 370.607 174.15C372.591 177.663 373.582 181.715 373.582 186.305C373.582 190.895 372.591 194.975 370.607 198.545C368.624 202.058 365.876 204.778 362.362 206.705C358.906 208.632 354.967 209.595 350.547 209.595C347.431 209.595 344.569 209.057 341.962 207.98C339.412 206.903 337.259 205.288 335.502 203.135V209H325.387V145.93H336.012V169.135C337.826 167.152 339.951 165.65 342.387 164.63C344.881 163.61 347.601 163.1 350.547 163.1ZM349.357 200.5C353.267 200.5 356.469 199.197 358.962 196.59C361.512 193.983 362.787 190.555 362.787 186.305C362.787 182.055 361.512 178.627 358.962 176.02C356.469 173.413 353.267 172.11 349.357 172.11C346.807 172.11 344.512 172.705 342.472 173.895C340.432 175.028 338.817 176.672 337.627 178.825C336.437 180.978 335.842 183.472 335.842 186.305C335.842 189.138 336.437 191.632 337.627 193.785C338.817 195.938 340.432 197.61 342.472 198.8C344.512 199.933 346.807 200.5 349.357 200.5ZM426.329 186.56C426.329 187.297 426.272 188.345 426.159 189.705H390.544C391.167 193.048 392.782 195.712 395.389 197.695C398.052 199.622 401.339 200.585 405.249 200.585C410.236 200.585 414.344 198.942 417.574 195.655L423.269 202.2C421.229 204.637 418.651 206.478 415.534 207.725C412.417 208.972 408.904 209.595 404.994 209.595C400.007 209.595 395.616 208.603 391.819 206.62C388.022 204.637 385.076 201.888 382.979 198.375C380.939 194.805 379.919 190.782 379.919 186.305C379.919 181.885 380.911 177.918 382.894 174.405C384.934 170.835 387.739 168.058 391.309 166.075C394.879 164.092 398.902 163.1 403.379 163.1C407.799 163.1 411.737 164.092 415.194 166.075C418.707 168.002 421.427 170.75 423.354 174.32C425.337 177.833 426.329 181.913 426.329 186.56ZM403.379 171.6C399.979 171.6 397.089 172.62 394.709 174.66C392.386 176.643 390.969 179.307 390.459 182.65H416.214C415.761 179.363 414.372 176.7 412.049 174.66C409.726 172.62 406.836 171.6 403.379 171.6Z" fill="black"/>
<path d="M470.598 203.934C466.116 197.348 463.605 189.676 463.371 181.85C463.136 174.024 465.187 166.38 469.276 159.847L503.915 182.1L470.598 203.934Z" fill="#8FBFE0"/>
<rect x="441" y="216.9" width="81.325" height="9.6709" rx="4.83545" transform="rotate(-29.8832 441 216.9)" fill="#0A4272"/>
<rect x="445.905" y="140.333" width="81.4551" height="9.77461" rx="4.8873" transform="rotate(30.1168 445.905 140.333)" fill="#DD0426"/>
</g>
<defs>
<clipPath id="clip0">
<rect width="539" height="363" fill="white"/>
</clipPath>
</defs>
</svg>
