<svg width="257" height="155" viewBox="0 0 257 155" fill="none" xmlns="http://www.w3.org/2000/svg">
<rect x="243.192" width="6.83122" height="33.473" rx="3.41561" transform="rotate(41.5272 243.192 0)" fill="#FF7070"/>
<rect x="251.886" y="7.69919" width="6.83122" height="33.473" rx="3.41561" transform="rotate(41.5272 251.886 7.69919)" fill="#70DDFF"/>
<path d="M72.3757 23.2L60.0097 61H50.6137L42.2977 35.404L33.7117 61H24.3697L11.9497 23.2H21.0217L29.5537 49.768L38.4637 23.2H46.5637L55.2037 49.984L64.0057 23.2H72.3757ZM77.1927 31.948H85.6167V61H77.1927V31.948ZM81.4047 27.898C79.8567 27.898 78.5967 27.448 77.6247 26.548C76.6527 25.648 76.1667 24.532 76.1667 23.2C76.1667 21.868 76.6527 20.752 77.6247 19.852C78.5967 18.952 79.8567 18.502 81.4047 18.502C82.9527 18.502 84.2127 18.934 85.1847 19.798C86.1567 20.662 86.6427 21.742 86.6427 23.038C86.6427 24.442 86.1567 25.612 85.1847 26.548C84.2127 27.448 82.9527 27.898 81.4047 27.898ZM93.4349 20.932H101.859V61H93.4349V20.932ZM109.677 20.932H118.101V61H109.677V20.932ZM125.919 31.948H134.343V61H125.919V31.948ZM130.131 27.898C128.583 27.898 127.323 27.448 126.351 26.548C125.379 25.648 124.893 24.532 124.893 23.2C124.893 21.868 125.379 20.752 126.351 19.852C127.323 18.952 128.583 18.502 130.131 18.502C131.679 18.502 132.939 18.934 133.911 19.798C134.883 20.662 135.369 21.742 135.369 23.038C135.369 24.442 134.883 25.612 133.911 26.548C132.939 27.448 131.679 27.898 130.131 27.898ZM153.879 31.516C158.379 31.516 161.835 32.596 164.247 34.756C166.659 36.88 167.865 40.102 167.865 44.422V61H159.981V57.382C158.397 60.082 155.445 61.432 151.125 61.432C148.893 61.432 146.949 61.054 145.293 60.298C143.673 59.542 142.431 58.498 141.567 57.166C140.703 55.834 140.271 54.322 140.271 52.63C140.271 49.93 141.279 47.806 143.295 46.258C145.347 44.71 148.497 43.936 152.745 43.936H159.441C159.441 42.1 158.883 40.696 157.767 39.724C156.651 38.716 154.977 38.212 152.745 38.212C151.197 38.212 149.667 38.464 148.155 38.968C146.679 39.436 145.419 40.084 144.375 40.912L141.351 35.026C142.935 33.91 144.825 33.046 147.021 32.434C149.253 31.822 151.539 31.516 153.879 31.516ZM153.231 55.762C154.671 55.762 155.949 55.438 157.065 54.79C158.181 54.106 158.973 53.116 159.441 51.82V48.85H153.663C150.207 48.85 148.479 49.984 148.479 52.252C148.479 53.332 148.893 54.196 149.721 54.844C150.585 55.456 151.755 55.762 153.231 55.762ZM212.696 31.516C216.332 31.516 219.212 32.596 221.336 34.756C223.496 36.88 224.576 40.084 224.576 44.368V61H216.152V45.664C216.152 43.36 215.666 41.65 214.694 40.534C213.758 39.382 212.408 38.806 210.644 38.806C208.664 38.806 207.098 39.454 205.946 40.75C204.794 42.01 204.218 43.9 204.218 46.42V61H195.794V45.664C195.794 41.092 193.958 38.806 190.286 38.806C188.342 38.806 186.794 39.454 185.642 40.75C184.49 42.01 183.914 43.9 183.914 46.42V61H175.49V31.948H183.536V35.296C184.616 34.072 185.93 33.136 187.478 32.488C189.062 31.84 190.79 31.516 192.662 31.516C194.714 31.516 196.568 31.93 198.224 32.758C199.88 33.55 201.212 34.72 202.22 36.268C203.408 34.756 204.902 33.586 206.702 32.758C208.538 31.93 210.536 31.516 212.696 31.516ZM95.3034 111.05C94.0794 112.562 92.5854 113.714 90.8214 114.506C89.0934 115.298 87.1854 115.694 85.0974 115.694C82.2894 115.694 79.7514 115.082 77.4834 113.858C75.2154 112.67 72.6234 110.546 69.7074 107.486C66.2874 107.054 63.2274 105.956 60.5274 104.192C57.8634 102.428 55.7754 100.16 54.2634 97.388C52.7874 94.58 52.0494 91.484 52.0494 88.1C52.0494 84.392 52.9314 81.062 54.6954 78.11C56.4954 75.122 58.9614 72.782 62.0934 71.09C65.2614 69.398 68.8074 68.552 72.7314 68.552C76.6554 68.552 80.1834 69.398 83.3154 71.09C86.4474 72.782 88.9134 75.122 90.7134 78.11C92.5134 81.062 93.4134 84.392 93.4134 88.1C93.4134 92.492 92.1714 96.344 89.6874 99.656C87.2394 102.968 83.9814 105.272 79.9134 106.568C80.8134 107.504 81.6774 108.17 82.5054 108.566C83.3694 108.998 84.2874 109.214 85.2594 109.214C87.5994 109.214 89.6514 108.278 91.4154 106.406L95.3034 111.05ZM60.9054 88.1C60.9054 90.44 61.4094 92.528 62.4174 94.364C63.4614 96.2 64.8834 97.64 66.6834 98.684C68.4834 99.692 70.4994 100.196 72.7314 100.196C74.9634 100.196 76.9794 99.692 78.7794 98.684C80.5794 97.64 81.9834 96.2 82.9914 94.364C84.0354 92.528 84.5574 90.44 84.5574 88.1C84.5574 85.76 84.0354 83.672 82.9914 81.836C81.9834 80 80.5794 78.578 78.7794 77.57C76.9794 76.526 74.9634 76.004 72.7314 76.004C70.4994 76.004 68.4834 76.526 66.6834 77.57C64.8834 78.578 63.4614 80 62.4174 81.836C61.4094 83.672 60.9054 85.76 60.9054 88.1ZM113.218 107.432C110.158 107.432 107.404 106.802 104.956 105.542C102.544 104.246 100.654 102.464 99.2859 100.196C97.9179 97.928 97.2339 95.354 97.2339 92.474C97.2339 89.594 97.9179 87.02 99.2859 84.752C100.654 82.484 102.544 80.72 104.956 79.46C107.404 78.164 110.158 77.516 113.218 77.516C116.278 77.516 119.014 78.164 121.426 79.46C123.838 80.72 125.728 82.484 127.096 84.752C128.464 87.02 129.148 89.594 129.148 92.474C129.148 95.354 128.464 97.928 127.096 100.196C125.728 102.464 123.838 104.246 121.426 105.542C119.014 106.802 116.278 107.432 113.218 107.432ZM113.218 100.52C115.378 100.52 117.142 99.8 118.51 98.36C119.914 96.884 120.616 94.922 120.616 92.474C120.616 90.026 119.914 88.082 118.51 86.642C117.142 85.166 115.378 84.428 113.218 84.428C111.058 84.428 109.276 85.166 107.872 86.642C106.468 88.082 105.766 90.026 105.766 92.474C105.766 94.922 106.468 96.884 107.872 98.36C109.276 99.8 111.058 100.52 113.218 100.52ZM142.825 81.782C143.833 80.378 145.183 79.316 146.875 78.596C148.603 77.876 150.583 77.516 152.815 77.516V85.292C151.879 85.22 151.249 85.184 150.925 85.184C148.513 85.184 146.623 85.868 145.255 87.236C143.887 88.568 143.203 90.584 143.203 93.284V107H134.779V77.948H142.825V81.782ZM171.384 107.432C168.324 107.432 165.57 106.802 163.122 105.542C160.71 104.246 158.82 102.464 157.452 100.196C156.084 97.928 155.4 95.354 155.4 92.474C155.4 89.594 156.084 87.02 157.452 84.752C158.82 82.484 160.71 80.72 163.122 79.46C165.57 78.164 168.324 77.516 171.384 77.516C174.444 77.516 177.18 78.164 179.592 79.46C182.004 80.72 183.894 82.484 185.262 84.752C186.63 87.02 187.314 89.594 187.314 92.474C187.314 95.354 186.63 97.928 185.262 100.196C183.894 102.464 182.004 104.246 179.592 105.542C177.18 106.802 174.444 107.432 171.384 107.432ZM171.384 100.52C173.544 100.52 175.308 99.8 176.676 98.36C178.08 96.884 178.782 94.922 178.782 92.474C178.782 90.026 178.08 88.082 176.676 86.642C175.308 85.166 173.544 84.428 171.384 84.428C169.224 84.428 167.442 85.166 166.038 86.642C164.634 88.082 163.932 90.026 163.932 92.474C163.932 94.922 164.634 96.884 166.038 98.36C167.442 99.8 169.224 100.52 171.384 100.52Z" fill="black"/>
</svg>
